<svg id="svg" xmlns="http://www.w3.org/2000/svg" xmlns:xlink="http://www.w3.org/1999/xlink" width="400" height="400" viewBox="0, 0, 400,400" version="1.1"><g id="svgg"><path id="path0" d="M199.118 60.647 C 193.324 74.312,145.236 103.707,142.433 95.298 C 140.539 89.616,132.512 89.722,116.964 95.633 C 98.087 102.810,95.921 106.265,104.110 116.133 C 115.587 129.961,100.238 132.972,80.850 120.695 C 59.377 107.097,20.085 140.005,19.690 171.918 C 19.498 187.363,22.076 200.000,25.419 200.000 C 28.763 200.000,29.546 205.085,27.162 211.300 C 24.612 217.945,28.836 224.155,37.413 226.372 C 51.206 229.939,51.185 230.194,37.020 231.072 C 24.149 231.869,23.552 233.820,32.776 244.934 C 38.680 252.048,49.512 270.948,56.847 286.934 L 70.184 316.000 69.864 289.628 C 69.688 275.123,73.697 259.103,78.772 254.028 C 93.134 239.666,89.653 230.397,72.000 236.000 C 59.625 239.928,56.000 237.438,56.000 225.011 C 56.000 216.174,52.400 206.719,48.000 204.000 C 25.845 190.307,41.614 167.644,90.000 143.638 C 117.500 129.994,151.655 111.628,165.901 102.824 C 211.544 74.617,302.216 82.527,283.339 113.069 C 276.848 123.572,291.441 121.359,302.662 110.138 C 310.478 102.322,313.502 104.017,317.239 118.307 C 320.638 131.304,324.656 134.095,331.634 128.304 C 360.313 104.502,370.004 140.362,342.755 169.457 C 303.678 211.182,296.000 221.976,296.000 235.190 C 296.000 241.716,292.400 249.281,288.000 252.000 C 283.600 254.719,280.000 260.362,280.000 264.540 C 280.000 268.718,287.200 267.639,296.000 262.143 C 304.800 256.648,312.000 245.817,312.000 238.076 C 312.000 230.334,314.992 224.000,318.648 224.000 C 322.305 224.000,330.405 214.100,336.648 202.000 C 342.892 189.900,354.300 173.021,362.000 164.492 C 381.951 142.391,365.108 100.732,337.934 104.969 C 321.891 107.471,317.241 102.862,328.000 95.123 C 338.129 87.837,337.817 87.193,326.000 90.994 C 318.300 93.471,312.000 91.626,312.000 86.893 C 312.000 82.142,306.017 80.584,298.640 83.415 C 291.291 86.235,282.687 84.347,279.518 79.221 C 272.190 67.364,237.811 64.923,230.316 75.728 C 226.806 80.787,220.348 78.063,213.434 68.608 C 207.275 60.185,200.833 56.602,199.118 60.647 M168.000 136.000 C 168.000 153.821,183.678 157.122,198.400 142.400 C 213.313 127.487,209.837 120.000,188.000 120.000 C 173.333 120.000,168.000 124.267,168.000 136.000 M83.569 280.697 C 80.613 285.480,82.200 293.400,87.097 298.297 C 93.634 304.834,96.000 303.586,96.000 293.600 C 96.000 286.120,99.600 280.000,104.000 280.000 C 108.400 280.000,112.000 283.600,112.000 288.000 C 112.000 292.400,117.841 296.000,124.980 296.000 C 135.610 296.000,136.157 293.828,128.000 284.000 C 116.389 270.010,91.326 268.147,83.569 280.697 M208.187 304.920 C 197.290 309.268,179.290 312.258,168.187 311.565 C 134.439 309.458,131.115 311.768,152.000 322.815 C 163.990 329.157,175.693 330.578,181.222 326.363 C 186.856 322.068,191.663 322.988,193.576 328.728 C 197.805 341.415,232.000 330.201,232.000 316.128 C 232.000 310.191,236.500 303.518,242.000 301.298 C 248.719 298.587,248.063 297.222,240.000 297.139 C 233.400 297.070,219.084 300.572,208.187 304.920 " stroke="none" fill="#000000" fill-rule="evenodd"></path></g></svg>