<svg id="svg" xmlns="http://www.w3.org/2000/svg" xmlns:xlink="http://www.w3.org/1999/xlink" width="400" height="400" viewBox="0, 0, 400,400" version="1.1"><g id="svgg"><path id="path0" d="M162.461 126.823 C 148.415 139.711,139.030 152.363,141.606 154.940 C 144.182 157.516,140.375 161.893,133.145 164.668 C 125.915 167.442,120.000 174.427,120.000 180.189 C 120.000 185.952,117.300 191.867,114.000 193.333 C 110.700 194.800,93.600 215.210,76.000 238.689 C 58.400 262.167,35.000 286.323,24.000 292.368 C 1.804 304.566,-3.540 303.848,140.000 307.961 C 170.800 308.843,202.300 312.298,210.000 315.639 C 217.700 318.979,224.000 318.462,224.000 314.491 C 224.000 310.520,237.191 306.382,253.312 305.296 C 269.434 304.210,285.386 301.616,288.760 299.531 C 292.134 297.445,297.156 299.398,299.919 303.870 C 309.544 319.443,320.838 312.514,312.184 296.344 C 307.514 287.617,291.456 278.372,275.903 275.454 C 260.556 272.575,248.000 267.133,248.000 263.361 C 248.000 259.589,254.182 258.874,261.738 261.774 C 273.918 266.448,274.145 265.608,263.738 254.363 C 257.282 247.387,248.688 243.692,244.640 246.152 C 240.593 248.612,239.493 244.860,242.197 237.814 C 245.302 229.722,242.397 224.081,234.311 222.501 C 223.145 220.320,223.398 218.466,236.290 208.000 C 244.782 201.106,248.515 200.255,245.064 206.000 C 241.382 212.128,243.459 216.000,250.428 216.000 C 257.875 216.000,261.026 208.947,259.557 195.565 C 257.741 179.028,259.410 176.871,268.306 184.254 C 279.916 193.889,296.000 188.547,296.000 175.056 C 296.000 170.656,292.777 169.048,288.838 171.482 C 284.899 173.916,279.460 171.429,276.750 165.954 C 243.248 98.260,207.085 85.878,162.461 126.823 M300.228 217.749 C 308.903 229.710,319.000 239.610,322.667 239.749 C 334.772 240.205,323.461 221.591,303.790 208.685 L 284.456 196.000 300.228 217.749 M285.833 228.833 C 282.625 232.042,280.000 240.187,280.000 246.933 C 280.000 255.938,282.367 256.833,288.900 250.300 C 293.795 245.405,296.420 237.260,294.733 232.200 C 293.047 227.140,289.042 225.625,285.833 228.833 M370.667 291.670 C 370.667 298.488,377.521 304.000,386.000 304.000 C 394.709 304.000,399.895 299.680,398.004 294.000 C 393.087 279.233,370.667 277.323,370.667 291.670 " stroke="none" fill="#000000" fill-rule="evenodd"></path></g></svg>