<svg id="svg" xmlns="http://www.w3.org/2000/svg" xmlns:xlink="http://www.w3.org/1999/xlink" width="400" height="400" viewBox="0, 0, 400,400" version="1.1"><g id="svgg"><path id="path0" d="M172.123 93.385 C 144.188 117.533,143.005 120.172,157.579 125.835 C 173.158 131.889,173.095 132.719,154.084 172.000 C 135.371 210.664,129.995 188.414,147.320 144.000 C 150.493 135.865,141.864 126.224,120.529 114.066 L 89.058 96.131 71.717 118.066 C 56.956 136.737,55.119 146.391,59.371 182.960 C 62.446 209.408,61.038 229.929,55.709 236.350 C 49.337 244.029,51.399 255.301,63.526 279.072 C 72.587 296.832,80.000 318.658,80.000 327.574 C 80.000 347.649,130.452 371.420,150.724 360.896 C 164.405 353.792,185.764 354.464,248.000 363.953 C 283.155 369.314,284.798 368.575,318.000 332.507 C 348.222 299.676,365.122 262.946,344.000 276.000 C 339.539 278.757,336.054 272.773,336.123 262.472 C 336.221 247.611,337.761 246.346,344.000 256.000 C 354.274 271.898,353.977 264.058,343.126 232.932 C 335.755 211.786,331.353 208.433,317.126 213.124 C 266.546 229.802,262.661 221.800,276.568 129.601 C 286.785 61.868,230.971 42.515,172.123 93.385 M224.657 94.773 C 215.877 111.178,186.524 125.191,178.257 116.924 C 171.705 110.372,192.672 87.262,211.722 80.038 C 232.714 72.078,235.254 74.972,224.657 94.773 M264.000 103.749 C 264.000 114.154,260.099 118.001,252.505 115.087 C 246.183 112.661,242.968 105.574,245.361 99.338 C 251.765 82.650,264.000 85.545,264.000 103.749 M229.522 144.722 C 241.558 156.758,175.581 320.000,158.682 320.000 C 149.776 320.000,104.000 273.905,104.000 264.936 C 104.000 260.755,100.508 256.133,96.240 254.667 C 80.078 249.113,76.160 142.084,92.234 145.210 C 100.126 146.744,110.502 159.541,115.292 173.647 C 130.700 219.028,140.379 221.418,163.086 185.447 C 190.425 142.140,213.063 128.263,229.522 144.722 M272.000 250.397 C 272.000 253.998,276.067 254.431,281.038 251.359 C 286.527 247.966,288.612 250.137,286.349 256.886 C 284.300 262.999,277.533 268.095,271.311 268.211 C 265.090 268.328,255.500 271.240,250.000 274.684 C 242.699 279.255,240.000 273.242,240.000 252.404 C 240.000 225.867,241.123 224.566,256.000 233.857 C 264.800 239.352,272.000 246.795,272.000 250.397 M322.387 295.738 C 320.123 304.394,313.260 315.635,307.135 320.717 C 293.569 331.976,293.123 327.068,305.284 300.376 C 316.230 276.352,328.313 273.075,322.387 295.738 M280.000 304.526 C 280.000 317.994,264.189 344.000,256.000 344.000 C 236.387 344.000,231.222 311.775,249.650 304.379 C 274.397 294.447,280.000 294.474,280.000 304.526 " stroke="none" fill="#000000" fill-rule="evenodd"></path></g></svg>