<svg id="svg" version="1.1" xmlns="http://www.w3.org/2000/svg" xmlns:xlink="http://www.w3.org/1999/xlink" width="400" height="400" viewBox="0, 0, 400,400"><g id="svgg"><path id="path0" d="M189.295 55.526 C 181.961 92.193,161.340 133.833,127.654 180.000 C 37.508 303.540,54.008 365.929,180.612 380.253 C 273.478 390.759,332.000 356.941,332.000 292.771 C 332.000 257.959,329.248 252.853,256.127 152.000 C 238.581 127.800,217.525 90.399,209.336 68.887 L 194.445 29.774 189.295 55.526 M235.606 170.263 C 275.711 233.375,285.186 306.814,256.876 335.124 C 238.625 353.375,157.864 359.959,148.000 344.000 C 145.281 339.600,146.681 336.000,151.112 336.000 C 156.398 336.000,156.203 327.495,150.545 311.266 C 143.400 290.768,138.537 287.179,122.152 290.311 C 92.318 296.014,102.562 261.803,153.772 184.715 C 204.514 108.332,197.084 109.644,235.606 170.263 " stroke="none" fill="#000000" fill-rule="evenodd"></path></g></svg>