<svg id="svg" version="1.1" xmlns="http://www.w3.org/2000/svg" xmlns:xlink="http://www.w3.org/1999/xlink" width="400" height="400" viewBox="0, 0, 400,400"><g id="svgg"><path id="path0" d="M199.962 88.000 L 198.287 140.000 190.672 106.000 C 181.260 63.969,167.853 61.344,170.239 102.000 C 171.426 122.217,168.785 131.363,162.141 130.047 C 156.718 128.973,149.999 137.188,147.209 148.302 C 142.609 166.630,141.210 167.243,132.175 154.887 C 120.029 138.276,96.000 133.521,96.000 147.728 C 96.000 153.400,101.400 162.522,108.000 168.000 C 114.600 173.478,120.000 182.533,120.000 188.124 C 120.000 193.714,114.600 200.360,108.000 202.893 C 91.060 209.394,93.106 221.377,112.000 226.318 C 120.800 228.619,128.000 236.239,128.000 243.251 C 128.000 250.263,131.180 256.000,135.067 256.000 C 138.954 256.000,144.070 263.406,146.437 272.457 C 152.422 295.341,135.899 288.332,115.619 259.383 C 93.198 227.379,77.137 224.866,81.418 254.032 L 84.745 276.700 48.372 267.309 C -36.576 245.376,45.716 312.864,152.000 352.294 C 167.400 358.007,183.600 365.364,188.000 368.643 C 200.314 377.819,256.799 364.575,288.000 345.195 C 303.400 335.630,329.801 324.028,346.669 319.414 C 366.694 313.935,375.934 307.367,373.294 300.486 C 371.070 294.691,373.469 285.656,378.625 280.409 C 385.861 273.044,383.035 272.094,366.236 276.242 C 351.246 279.943,340.487 277.630,331.665 268.808 C 324.621 261.764,321.814 255.945,325.429 255.877 C 329.043 255.810,326.926 252.543,320.723 248.616 C 305.330 238.872,322.399 197.195,346.569 185.510 C 359.975 179.029,360.899 176.958,350.571 176.541 C 343.186 176.244,331.743 181.400,325.143 188.000 C 309.157 203.986,304.000 203.126,304.000 184.472 C 304.000 162.220,290.119 156.721,283.846 176.487 C 280.927 185.682,276.675 191.342,274.397 189.064 C 272.119 186.786,259.575 196.415,246.520 210.461 C 222.928 235.846,222.794 235.879,224.278 216.000 C 226.586 185.082,224.609 174.680,217.283 179.207 C 213.589 181.490,211.098 161.003,211.747 133.679 C 212.396 106.356,210.387 73.200,207.282 60.000 C 202.942 41.547,201.251 48.018,199.962 88.000 " stroke="none" fill="#000000" fill-rule="evenodd"></path></g></svg>