<svg xmlns="http://www.w3.org/2000/svg"><symbol viewBox="0 0 332 382.14246" id="src-1"><g id="svgg"><path id="path0" d="M189.295 55.526 C 181.961 92.193,161.340 133.833,127.654 180.000 C 37.508 303.540,54.008 365.929,180.612 380.253 C 273.478 390.759,332.000 356.941,332.000 292.771 C 332.000 257.959,329.248 252.853,256.127 152.000 C 238.581 127.800,217.525 90.399,209.336 68.887 L 194.445 29.774 189.295 55.526 M235.606 170.263 C 275.711 233.375,285.186 306.814,256.876 335.124 C 238.625 353.375,157.864 359.959,148.000 344.000 C 145.281 339.600,146.681 336.000,151.112 336.000 C 156.398 336.000,156.203 327.495,150.545 311.266 C 143.400 290.768,138.537 287.179,122.152 290.311 C 92.318 296.014,102.562 261.803,153.772 184.715 C 204.514 108.332,197.084 109.644,235.606 170.263 " stroke="none" fill="#000000" fill-rule="evenodd"/></g></symbol><symbol viewBox="0 0 370.73584 334.2611" id="src-2"><g id="svgg"><path id="path0" d="M199.118 60.647 C 193.324 74.312,145.236 103.707,142.433 95.298 C 140.539 89.616,132.512 89.722,116.964 95.633 C 98.087 102.810,95.921 106.265,104.110 116.133 C 115.587 129.961,100.238 132.972,80.850 120.695 C 59.377 107.097,20.085 140.005,19.690 171.918 C 19.498 187.363,22.076 200.000,25.419 200.000 C 28.763 200.000,29.546 205.085,27.162 211.300 C 24.612 217.945,28.836 224.155,37.413 226.372 C 51.206 229.939,51.185 230.194,37.020 231.072 C 24.149 231.869,23.552 233.820,32.776 244.934 C 38.680 252.048,49.512 270.948,56.847 286.934 L 70.184 316.000 69.864 289.628 C 69.688 275.123,73.697 259.103,78.772 254.028 C 93.134 239.666,89.653 230.397,72.000 236.000 C 59.625 239.928,56.000 237.438,56.000 225.011 C 56.000 216.174,52.400 206.719,48.000 204.000 C 25.845 190.307,41.614 167.644,90.000 143.638 C 117.500 129.994,151.655 111.628,165.901 102.824 C 211.544 74.617,302.216 82.527,283.339 113.069 C 276.848 123.572,291.441 121.359,302.662 110.138 C 310.478 102.322,313.502 104.017,317.239 118.307 C 320.638 131.304,324.656 134.095,331.634 128.304 C 360.313 104.502,370.004 140.362,342.755 169.457 C 303.678 211.182,296.000 221.976,296.000 235.190 C 296.000 241.716,292.400 249.281,288.000 252.000 C 283.600 254.719,280.000 260.362,280.000 264.540 C 280.000 268.718,287.200 267.639,296.000 262.143 C 304.800 256.648,312.000 245.817,312.000 238.076 C 312.000 230.334,314.992 224.000,318.648 224.000 C 322.305 224.000,330.405 214.100,336.648 202.000 C 342.892 189.900,354.300 173.021,362.000 164.492 C 381.951 142.391,365.108 100.732,337.934 104.969 C 321.891 107.471,317.241 102.862,328.000 95.123 C 338.129 87.837,337.817 87.193,326.000 90.994 C 318.300 93.471,312.000 91.626,312.000 86.893 C 312.000 82.142,306.017 80.584,298.640 83.415 C 291.291 86.235,282.687 84.347,279.518 79.221 C 272.190 67.364,237.811 64.923,230.316 75.728 C 226.806 80.787,220.348 78.063,213.434 68.608 C 207.275 60.185,200.833 56.602,199.118 60.647 M168.000 136.000 C 168.000 153.821,183.678 157.122,198.400 142.400 C 213.313 127.487,209.837 120.000,188.000 120.000 C 173.333 120.000,168.000 124.267,168.000 136.000 M83.569 280.697 C 80.613 285.480,82.200 293.400,87.097 298.297 C 93.634 304.834,96.000 303.586,96.000 293.600 C 96.000 286.120,99.600 280.000,104.000 280.000 C 108.400 280.000,112.000 283.600,112.000 288.000 C 112.000 292.400,117.841 296.000,124.980 296.000 C 135.610 296.000,136.157 293.828,128.000 284.000 C 116.389 270.010,91.326 268.147,83.569 280.697 M208.187 304.920 C 197.290 309.268,179.290 312.258,168.187 311.565 C 134.439 309.458,131.115 311.768,152.000 322.815 C 163.990 329.157,175.693 330.578,181.222 326.363 C 186.856 322.068,191.663 322.988,193.576 328.728 C 197.805 341.415,232.000 330.201,232.000 316.128 C 232.000 310.191,236.500 303.518,242.000 301.298 C 248.719 298.587,248.063 297.222,240.000 297.139 C 233.400 297.070,219.084 300.572,208.187 304.920 " stroke="none" fill="#000000" fill-rule="evenodd"/></g></symbol><symbol viewBox="0 0 382.35764 371.61694" id="src-3"><g id="svgg"><path id="path0" d="M199.962 88.000 L 198.287 140.000 190.672 106.000 C 181.260 63.969,167.853 61.344,170.239 102.000 C 171.426 122.217,168.785 131.363,162.141 130.047 C 156.718 128.973,149.999 137.188,147.209 148.302 C 142.609 166.630,141.210 167.243,132.175 154.887 C 120.029 138.276,96.000 133.521,96.000 147.728 C 96.000 153.400,101.400 162.522,108.000 168.000 C 114.600 173.478,120.000 182.533,120.000 188.124 C 120.000 193.714,114.600 200.360,108.000 202.893 C 91.060 209.394,93.106 221.377,112.000 226.318 C 120.800 228.619,128.000 236.239,128.000 243.251 C 128.000 250.263,131.180 256.000,135.067 256.000 C 138.954 256.000,144.070 263.406,146.437 272.457 C 152.422 295.341,135.899 288.332,115.619 259.383 C 93.198 227.379,77.137 224.866,81.418 254.032 L 84.745 276.700 48.372 267.309 C -36.576 245.376,45.716 312.864,152.000 352.294 C 167.400 358.007,183.600 365.364,188.000 368.643 C 200.314 377.819,256.799 364.575,288.000 345.195 C 303.400 335.630,329.801 324.028,346.669 319.414 C 366.694 313.935,375.934 307.367,373.294 300.486 C 371.070 294.691,373.469 285.656,378.625 280.409 C 385.861 273.044,383.035 272.094,366.236 276.242 C 351.246 279.943,340.487 277.630,331.665 268.808 C 324.621 261.764,321.814 255.945,325.429 255.877 C 329.043 255.810,326.926 252.543,320.723 248.616 C 305.330 238.872,322.399 197.195,346.569 185.510 C 359.975 179.029,360.899 176.958,350.571 176.541 C 343.186 176.244,331.743 181.400,325.143 188.000 C 309.157 203.986,304.000 203.126,304.000 184.472 C 304.000 162.220,290.119 156.721,283.846 176.487 C 280.927 185.682,276.675 191.342,274.397 189.064 C 272.119 186.786,259.575 196.415,246.520 210.461 C 222.928 235.846,222.794 235.879,224.278 216.000 C 226.586 185.082,224.609 174.680,217.283 179.207 C 213.589 181.490,211.098 161.003,211.747 133.679 C 212.396 106.356,210.387 73.200,207.282 60.000 C 202.942 41.547,201.251 48.018,199.962 88.000 " stroke="none" fill="#000000" fill-rule="evenodd"/></g></symbol><symbol viewBox="0 0 367.28235 370.1252" id="src-4"><g id="svgg"><path id="path0" d="M131.836 80.171 C 117.317 95.326,97.296 106.162,78.162 109.222 C 43.926 114.696,43.860 114.758,36.710 148.159 C 32.127 169.566,34.200 173.323,54.919 181.143 C 107.171 200.866,116.246 267.958,72.069 307.937 C 52.289 325.839,52.245 334.858,71.826 358.343 C 86.266 375.661,120.000 370.552,120.000 351.046 C 120.000 345.137,153.977 331.493,186.300 324.423 C 212.392 318.715,268.694 332.147,277.735 346.237 C 295.688 374.214,309.898 377.184,331.225 357.419 C 356.993 333.538,357.110 326.525,332.133 302.840 C 297.674 270.162,302.560 175.333,337.588 196.981 C 343.141 200.414,344.207 198.808,340.431 192.698 C 336.587 186.477,340.500 181.325,351.195 178.528 C 370.059 173.596,371.149 169.323,360.613 141.612 C 352.315 119.788,329.215 107.585,317.803 118.997 C 313.109 123.691,316.617 129.908,327.141 135.540 C 350.044 147.797,348.440 156.232,318.000 183.612 L 292.000 206.999 274.567 186.915 C 259.950 170.075,254.457 168.263,240.567 175.697 C 226.828 183.050,224.000 182.239,224.000 170.948 C 224.000 153.339,216.444 160.922,212.241 182.749 C 210.449 192.052,212.421 201.788,216.622 204.385 C 220.824 206.981,222.667 211.685,220.718 214.839 C 218.769 217.992,224.110 220.571,232.587 220.571 C 242.050 220.571,248.000 215.057,248.000 206.286 C 248.000 198.429,250.819 192.000,254.264 192.000 C 262.246 192.000,260.966 225.492,252.459 239.258 C 247.160 247.832,244.821 247.801,239.435 239.086 C 235.824 233.243,230.957 230.376,228.619 232.714 C 220.072 241.261,248.042 270.026,269.713 274.976 C 301.880 282.324,334.095 325.334,318.850 340.579 C 309.024 350.405,303.559 348.140,278.599 323.896 C 258.329 304.208,245.492 297.465,235.546 301.281 C 225.846 305.004,223.200 303.767,227.160 297.360 C 230.341 292.212,229.132 288.000,224.472 288.000 C 219.812 288.000,216.000 281.241,216.000 272.980 C 216.000 248.134,172.624 231.994,146.416 247.088 C 145.545 247.590,148.665 258.996,153.350 272.435 C 162.485 298.640,159.869 302.292,111.333 331.074 C 87.667 345.108,80.431 327.643,100.116 304.000 C 109.955 292.183,113.734 281.477,123.403 238.024 C 127.758 218.451,130.019 217.125,144.076 225.904 C 157.591 234.344,161.673 233.171,172.477 217.747 C 179.417 207.839,189.016 202.155,193.808 205.117 C 199.500 208.635,200.956 204.521,198.009 193.251 C 195.396 183.260,197.223 176.000,202.349 176.000 C 208.236 176.000,207.874 172.674,201.267 166.067 C 194.138 158.938,189.734 158.637,185.667 165.001 C 174.696 182.168,140.344 173.363,134.947 152.000 C 130.360 133.848,129.806 134.403,128.947 158.000 C 127.877 187.373,123.085 188.846,83.038 172.114 C 50.037 158.325,50.683 141.232,84.353 137.301 C 97.069 135.817,112.295 127.717,118.190 119.301 C 131.450 100.369,142.000 99.707,145.444 117.591 C 146.975 125.542,156.349 131.760,168.031 132.574 C 179.014 133.340,203.300 136.398,222.000 139.370 C 254.519 144.537,256.000 143.885,256.000 124.386 C 256.000 100.428,258.218 99.842,284.281 116.920 C 302.433 128.814,304.000 128.814,304.000 116.920 C 304.000 109.814,300.705 104.000,296.678 104.000 C 292.651 104.000,279.163 93.200,266.704 80.000 C 233.344 44.655,165.780 44.741,131.836 80.171 M244.121 80.195 C 254.517 97.018,239.639 137.659,226.941 127.121 C 218.880 120.431,217.876 114.924,223.661 109.139 C 233.666 99.134,234.841 85.300,225.179 91.272 C 221.427 93.590,211.527 90.317,203.179 83.998 C 188.959 73.235,189.613 72.493,213.528 72.254 C 227.568 72.114,241.335 75.688,244.121 80.195 M274.772 160.857 C 285.724 189.872,297.897 191.017,294.531 162.716 C 293.078 150.494,286.473 140.641,279.019 139.573 C 267.930 137.986,267.311 141.089,274.772 160.857 " stroke="none" fill="#000000" fill-rule="evenodd"/></g></symbol><symbol viewBox="0 0 390.61667 338.59506" id="src-5"><g id="svgg"><path id="path0" d="M54.387 106.259 C 6.708 125.137,14.979 218.923,66.163 239.793 C 75.973 243.793,92.666 256.472,103.259 267.968 C 116.078 281.882,124.399 285.826,128.145 279.765 C 131.876 273.728,135.671 275.603,139.403 285.329 C 142.499 293.398,143.900 300.347,142.516 300.770 C 126.859 305.564,167.096 327.713,184.513 323.887 C 196.696 321.212,208.808 322.835,211.711 327.532 C 230.445 357.845,358.958 320.691,380.683 278.680 C 395.347 250.322,395.850 252.490,368.000 224.000 C 354.800 210.497,344.000 203.070,344.000 207.495 C 344.000 211.921,332.300 219.222,318.000 223.719 C 292.439 231.758,292.569 231.843,325.687 228.751 C 365.840 225.003,377.999 236.004,371.212 269.940 C 364.224 304.881,253.729 340.192,215.462 319.712 C 207.537 315.471,190.915 311.582,178.526 311.072 C 161.716 310.379,160.060 309.146,172.000 306.211 C 180.800 304.048,191.967 299.067,196.816 295.142 C 202.054 290.903,215.910 291.590,230.957 296.835 C 245.466 301.893,265.619 303.024,278.141 299.483 C 306.666 291.418,225.432 278.302,187.745 284.888 C 167.427 288.438,163.287 286.437,162.242 272.563 C 161.304 260.104,165.710 256.000,180.025 256.000 C 190.492 256.000,201.628 251.838,204.772 246.751 C 208.851 240.150,203.350 238.930,185.554 242.489 C 171.841 245.232,158.632 244.259,156.202 240.327 C 153.772 236.395,135.467 234.100,115.523 235.225 C 83.046 237.059,76.745 234.405,55.138 209.796 C 24.206 174.566,29.907 169.428,71.085 195.423 C 108.611 219.112,117.333 220.729,117.333 204.000 C 117.333 197.356,110.232 192.000,101.422 192.000 C 85.484 192.000,31.892 156.112,32.123 145.593 C 32.190 142.517,35.534 134.802,39.553 128.449 C 46.123 118.066,58.346 116.049,134.472 112.791 C 144.632 112.356,150.719 108.400,148.000 104.000 C 141.648 93.723,82.442 95.151,54.387 106.259 M187.899 101.455 C 205.443 103.510,224.343 108.965,229.899 113.576 C 237.013 119.480,240.000 119.304,240.000 112.980 C 240.000 87.055,269.464 105.384,314.329 159.217 C 326.610 173.953,338.164 184.502,340.006 182.661 C 341.847 180.820,331.030 165.461,315.968 148.531 C 300.906 131.601,287.286 113.857,285.700 109.101 C 284.012 104.035,256.552 99.887,219.409 99.085 C 184.534 98.333,170.354 99.399,187.899 101.455 M296.000 168.000 C 296.000 172.400,290.623 176.000,284.050 176.000 C 277.189 176.000,273.010 181.961,274.237 190.000 C 276.511 204.903,290.697 209.427,293.051 196.000 C 293.823 191.600,296.987 181.700,300.083 174.000 C 303.179 166.300,303.527 160.000,300.856 160.000 C 298.185 160.000,296.000 163.600,296.000 168.000 " stroke="none" fill="#000000" fill-rule="evenodd"/></g></symbol><symbol viewBox="0 0 398.38916 317.84158" id="src-6"><g id="svgg"><path id="path0" d="M162.461 126.823 C 148.415 139.711,139.030 152.363,141.606 154.940 C 144.182 157.516,140.375 161.893,133.145 164.668 C 125.915 167.442,120.000 174.427,120.000 180.189 C 120.000 185.952,117.300 191.867,114.000 193.333 C 110.700 194.800,93.600 215.210,76.000 238.689 C 58.400 262.167,35.000 286.323,24.000 292.368 C 1.804 304.566,-3.540 303.848,140.000 307.961 C 170.800 308.843,202.300 312.298,210.000 315.639 C 217.700 318.979,224.000 318.462,224.000 314.491 C 224.000 310.520,237.191 306.382,253.312 305.296 C 269.434 304.210,285.386 301.616,288.760 299.531 C 292.134 297.445,297.156 299.398,299.919 303.870 C 309.544 319.443,320.838 312.514,312.184 296.344 C 307.514 287.617,291.456 278.372,275.903 275.454 C 260.556 272.575,248.000 267.133,248.000 263.361 C 248.000 259.589,254.182 258.874,261.738 261.774 C 273.918 266.448,274.145 265.608,263.738 254.363 C 257.282 247.387,248.688 243.692,244.640 246.152 C 240.593 248.612,239.493 244.860,242.197 237.814 C 245.302 229.722,242.397 224.081,234.311 222.501 C 223.145 220.320,223.398 218.466,236.290 208.000 C 244.782 201.106,248.515 200.255,245.064 206.000 C 241.382 212.128,243.459 216.000,250.428 216.000 C 257.875 216.000,261.026 208.947,259.557 195.565 C 257.741 179.028,259.410 176.871,268.306 184.254 C 279.916 193.889,296.000 188.547,296.000 175.056 C 296.000 170.656,292.777 169.048,288.838 171.482 C 284.899 173.916,279.460 171.429,276.750 165.954 C 243.248 98.260,207.085 85.878,162.461 126.823 M300.228 217.749 C 308.903 229.710,319.000 239.610,322.667 239.749 C 334.772 240.205,323.461 221.591,303.790 208.685 L 284.456 196.000 300.228 217.749 M285.833 228.833 C 282.625 232.042,280.000 240.187,280.000 246.933 C 280.000 255.938,282.367 256.833,288.900 250.300 C 293.795 245.405,296.420 237.260,294.733 232.200 C 293.047 227.140,289.042 225.625,285.833 228.833 M370.667 291.670 C 370.667 298.488,377.521 304.000,386.000 304.000 C 394.709 304.000,399.895 299.680,398.004 294.000 C 393.087 279.233,370.667 277.323,370.667 291.670 " stroke="none" fill="#000000" fill-rule="evenodd"/></g></symbol><symbol viewBox="0 0 378.9722 346.86722" id="src-7"><g id="svgg"><path id="path0" d="M291.286 62.844 C 293.612 66.609,286.378 67.942,275.209 65.807 C 255.309 62.003,200.000 103.648,200.000 122.437 C 200.000 134.680,241.271 120.203,255.118 103.103 C 272.983 81.041,316.189 80.634,337.878 102.323 C 358.744 123.188,359.719 162.211,339.922 184.086 C 320.840 205.172,336.243 227.185,356.151 207.278 C 371.117 192.311,387.082 141.151,374.326 149.035 C 368.554 152.602,367.148 146.697,370.097 131.274 C 376.002 100.384,364.334 80.994,331.613 67.323 C 300.937 54.505,285.041 52.740,291.286 62.844 M253.549 117.047 C 245.686 127.471,233.894 136.000,227.345 136.000 C 217.829 136.000,217.196 139.286,224.192 152.360 L 232.948 168.719 261.288 151.204 C 288.756 134.228,303.386 137.937,303.877 162.000 C 304.097 172.753,318.168 168.313,322.893 156.000 C 328.769 140.689,320.575 118.700,311.162 124.518 C 307.223 126.952,304.000 125.710,304.000 121.756 C 304.000 101.651,267.717 98.264,253.549 117.047 M163.893 120.174 C 154.393 135.545,240.592 264.000,260.407 264.000 C 279.234 264.000,274.375 251.499,227.725 179.928 C 184.327 113.346,174.055 103.730,163.893 120.174 M123.606 144.637 C 118.215 153.361,182.255 252.701,208.695 276.629 C 243.212 307.866,234.457 274.397,190.763 208.071 C 143.909 136.951,134.089 127.675,123.606 144.637 M67.045 175.277 C 43.615 189.564,19.783 233.116,29.874 243.207 C 32.386 245.719,34.168 257.725,33.833 269.887 C 32.178 330.133,109.879 356.662,169.443 316.187 C 191.223 301.387,197.533 292.294,194.383 280.248 C 190.290 264.599,189.464 264.712,166.466 284.063 C 136.882 308.956,113.313 315.145,86.669 305.015 C 37.206 286.209,48.643 203.934,102.650 190.054 C 124.744 184.376,127.654 181.222,119.670 171.603 C 106.972 156.302,97.024 156.996,67.045 175.277 M264.000 176.000 C 255.198 181.689,260.527 183.638,284.000 183.315 C 309.141 182.970,312.571 181.402,300.000 176.000 C 278.950 166.955,277.997 166.955,264.000 176.000 M97.395 210.516 C 52.679 258.113,110.223 314.151,161.114 272.568 C 184.900 253.132,172.298 232.855,145.385 247.259 C 136.402 252.066,125.215 256.000,120.526 256.000 C 105.979 256.000,111.160 233.013,127.702 224.159 C 136.932 219.220,141.525 210.860,138.846 203.878 C 132.304 186.829,117.406 189.214,97.395 210.516 M260.341 199.448 C 257.422 204.172,267.784 215.493,283.532 224.784 C 311.442 241.251,312.000 242.584,312.000 292.790 C 312.000 345.594,328.319 365.698,338.958 326.000 C 355.220 265.316,334.582 200.000,299.146 200.000 C 293.735 200.000,283.978 197.955,277.464 195.455 C 270.949 192.955,263.244 194.752,260.341 199.448 " stroke="none" fill="#000000" fill-rule="evenodd"/></g></symbol><symbol viewBox="0 0 353.41092 366.3838" id="src-8"><g id="svgg"><path id="path0" d="M172.123 93.385 C 144.188 117.533,143.005 120.172,157.579 125.835 C 173.158 131.889,173.095 132.719,154.084 172.000 C 135.371 210.664,129.995 188.414,147.320 144.000 C 150.493 135.865,141.864 126.224,120.529 114.066 L 89.058 96.131 71.717 118.066 C 56.956 136.737,55.119 146.391,59.371 182.960 C 62.446 209.408,61.038 229.929,55.709 236.350 C 49.337 244.029,51.399 255.301,63.526 279.072 C 72.587 296.832,80.000 318.658,80.000 327.574 C 80.000 347.649,130.452 371.420,150.724 360.896 C 164.405 353.792,185.764 354.464,248.000 363.953 C 283.155 369.314,284.798 368.575,318.000 332.507 C 348.222 299.676,365.122 262.946,344.000 276.000 C 339.539 278.757,336.054 272.773,336.123 262.472 C 336.221 247.611,337.761 246.346,344.000 256.000 C 354.274 271.898,353.977 264.058,343.126 232.932 C 335.755 211.786,331.353 208.433,317.126 213.124 C 266.546 229.802,262.661 221.800,276.568 129.601 C 286.785 61.868,230.971 42.515,172.123 93.385 M224.657 94.773 C 215.877 111.178,186.524 125.191,178.257 116.924 C 171.705 110.372,192.672 87.262,211.722 80.038 C 232.714 72.078,235.254 74.972,224.657 94.773 M264.000 103.749 C 264.000 114.154,260.099 118.001,252.505 115.087 C 246.183 112.661,242.968 105.574,245.361 99.338 C 251.765 82.650,264.000 85.545,264.000 103.749 M229.522 144.722 C 241.558 156.758,175.581 320.000,158.682 320.000 C 149.776 320.000,104.000 273.905,104.000 264.936 C 104.000 260.755,100.508 256.133,96.240 254.667 C 80.078 249.113,76.160 142.084,92.234 145.210 C 100.126 146.744,110.502 159.541,115.292 173.647 C 130.700 219.028,140.379 221.418,163.086 185.447 C 190.425 142.140,213.063 128.263,229.522 144.722 M272.000 250.397 C 272.000 253.998,276.067 254.431,281.038 251.359 C 286.527 247.966,288.612 250.137,286.349 256.886 C 284.300 262.999,277.533 268.095,271.311 268.211 C 265.090 268.328,255.500 271.240,250.000 274.684 C 242.699 279.255,240.000 273.242,240.000 252.404 C 240.000 225.867,241.123 224.566,256.000 233.857 C 264.800 239.352,272.000 246.795,272.000 250.397 M322.387 295.738 C 320.123 304.394,313.260 315.635,307.135 320.717 C 293.569 331.976,293.123 327.068,305.284 300.376 C 316.230 276.352,328.313 273.075,322.387 295.738 M280.000 304.526 C 280.000 317.994,264.189 344.000,256.000 344.000 C 236.387 344.000,231.222 311.775,249.650 304.379 C 274.397 294.447,280.000 294.474,280.000 304.526 " stroke="none" fill="#000000" fill-rule="evenodd"/></g></symbol></svg>