<svg id="svg" version="1.1" xmlns="http://www.w3.org/2000/svg" xmlns:xlink="http://www.w3.org/1999/xlink" width="400" height="400" viewBox="0, 0, 400,400"><g id="svgg"><path id="path0" d="M131.836 80.171 C 117.317 95.326,97.296 106.162,78.162 109.222 C 43.926 114.696,43.860 114.758,36.710 148.159 C 32.127 169.566,34.200 173.323,54.919 181.143 C 107.171 200.866,116.246 267.958,72.069 307.937 C 52.289 325.839,52.245 334.858,71.826 358.343 C 86.266 375.661,120.000 370.552,120.000 351.046 C 120.000 345.137,153.977 331.493,186.300 324.423 C 212.392 318.715,268.694 332.147,277.735 346.237 C 295.688 374.214,309.898 377.184,331.225 357.419 C 356.993 333.538,357.110 326.525,332.133 302.840 C 297.674 270.162,302.560 175.333,337.588 196.981 C 343.141 200.414,344.207 198.808,340.431 192.698 C 336.587 186.477,340.500 181.325,351.195 178.528 C 370.059 173.596,371.149 169.323,360.613 141.612 C 352.315 119.788,329.215 107.585,317.803 118.997 C 313.109 123.691,316.617 129.908,327.141 135.540 C 350.044 147.797,348.440 156.232,318.000 183.612 L 292.000 206.999 274.567 186.915 C 259.950 170.075,254.457 168.263,240.567 175.697 C 226.828 183.050,224.000 182.239,224.000 170.948 C 224.000 153.339,216.444 160.922,212.241 182.749 C 210.449 192.052,212.421 201.788,216.622 204.385 C 220.824 206.981,222.667 211.685,220.718 214.839 C 218.769 217.992,224.110 220.571,232.587 220.571 C 242.050 220.571,248.000 215.057,248.000 206.286 C 248.000 198.429,250.819 192.000,254.264 192.000 C 262.246 192.000,260.966 225.492,252.459 239.258 C 247.160 247.832,244.821 247.801,239.435 239.086 C 235.824 233.243,230.957 230.376,228.619 232.714 C 220.072 241.261,248.042 270.026,269.713 274.976 C 301.880 282.324,334.095 325.334,318.850 340.579 C 309.024 350.405,303.559 348.140,278.599 323.896 C 258.329 304.208,245.492 297.465,235.546 301.281 C 225.846 305.004,223.200 303.767,227.160 297.360 C 230.341 292.212,229.132 288.000,224.472 288.000 C 219.812 288.000,216.000 281.241,216.000 272.980 C 216.000 248.134,172.624 231.994,146.416 247.088 C 145.545 247.590,148.665 258.996,153.350 272.435 C 162.485 298.640,159.869 302.292,111.333 331.074 C 87.667 345.108,80.431 327.643,100.116 304.000 C 109.955 292.183,113.734 281.477,123.403 238.024 C 127.758 218.451,130.019 217.125,144.076 225.904 C 157.591 234.344,161.673 233.171,172.477 217.747 C 179.417 207.839,189.016 202.155,193.808 205.117 C 199.500 208.635,200.956 204.521,198.009 193.251 C 195.396 183.260,197.223 176.000,202.349 176.000 C 208.236 176.000,207.874 172.674,201.267 166.067 C 194.138 158.938,189.734 158.637,185.667 165.001 C 174.696 182.168,140.344 173.363,134.947 152.000 C 130.360 133.848,129.806 134.403,128.947 158.000 C 127.877 187.373,123.085 188.846,83.038 172.114 C 50.037 158.325,50.683 141.232,84.353 137.301 C 97.069 135.817,112.295 127.717,118.190 119.301 C 131.450 100.369,142.000 99.707,145.444 117.591 C 146.975 125.542,156.349 131.760,168.031 132.574 C 179.014 133.340,203.300 136.398,222.000 139.370 C 254.519 144.537,256.000 143.885,256.000 124.386 C 256.000 100.428,258.218 99.842,284.281 116.920 C 302.433 128.814,304.000 128.814,304.000 116.920 C 304.000 109.814,300.705 104.000,296.678 104.000 C 292.651 104.000,279.163 93.200,266.704 80.000 C 233.344 44.655,165.780 44.741,131.836 80.171 M244.121 80.195 C 254.517 97.018,239.639 137.659,226.941 127.121 C 218.880 120.431,217.876 114.924,223.661 109.139 C 233.666 99.134,234.841 85.300,225.179 91.272 C 221.427 93.590,211.527 90.317,203.179 83.998 C 188.959 73.235,189.613 72.493,213.528 72.254 C 227.568 72.114,241.335 75.688,244.121 80.195 M274.772 160.857 C 285.724 189.872,297.897 191.017,294.531 162.716 C 293.078 150.494,286.473 140.641,279.019 139.573 C 267.930 137.986,267.311 141.089,274.772 160.857 " stroke="none" fill="#000000" fill-rule="evenodd"></path></g></svg>