<svg id="svg" xmlns="http://www.w3.org/2000/svg" xmlns:xlink="http://www.w3.org/1999/xlink" width="400" height="400" viewBox="0, 0, 400,400"><g id="svgg"><path id="path0" d="M54.387 106.259 C 6.708 125.137,14.979 218.923,66.163 239.793 C 75.973 243.793,92.666 256.472,103.259 267.968 C 116.078 281.882,124.399 285.826,128.145 279.765 C 131.876 273.728,135.671 275.603,139.403 285.329 C 142.499 293.398,143.900 300.347,142.516 300.770 C 126.859 305.564,167.096 327.713,184.513 323.887 C 196.696 321.212,208.808 322.835,211.711 327.532 C 230.445 357.845,358.958 320.691,380.683 278.680 C 395.347 250.322,395.850 252.490,368.000 224.000 C 354.800 210.497,344.000 203.070,344.000 207.495 C 344.000 211.921,332.300 219.222,318.000 223.719 C 292.439 231.758,292.569 231.843,325.687 228.751 C 365.840 225.003,377.999 236.004,371.212 269.940 C 364.224 304.881,253.729 340.192,215.462 319.712 C 207.537 315.471,190.915 311.582,178.526 311.072 C 161.716 310.379,160.060 309.146,172.000 306.211 C 180.800 304.048,191.967 299.067,196.816 295.142 C 202.054 290.903,215.910 291.590,230.957 296.835 C 245.466 301.893,265.619 303.024,278.141 299.483 C 306.666 291.418,225.432 278.302,187.745 284.888 C 167.427 288.438,163.287 286.437,162.242 272.563 C 161.304 260.104,165.710 256.000,180.025 256.000 C 190.492 256.000,201.628 251.838,204.772 246.751 C 208.851 240.150,203.350 238.930,185.554 242.489 C 171.841 245.232,158.632 244.259,156.202 240.327 C 153.772 236.395,135.467 234.100,115.523 235.225 C 83.046 237.059,76.745 234.405,55.138 209.796 C 24.206 174.566,29.907 169.428,71.085 195.423 C 108.611 219.112,117.333 220.729,117.333 204.000 C 117.333 197.356,110.232 192.000,101.422 192.000 C 85.484 192.000,31.892 156.112,32.123 145.593 C 32.190 142.517,35.534 134.802,39.553 128.449 C 46.123 118.066,58.346 116.049,134.472 112.791 C 144.632 112.356,150.719 108.400,148.000 104.000 C 141.648 93.723,82.442 95.151,54.387 106.259 M187.899 101.455 C 205.443 103.510,224.343 108.965,229.899 113.576 C 237.013 119.480,240.000 119.304,240.000 112.980 C 240.000 87.055,269.464 105.384,314.329 159.217 C 326.610 173.953,338.164 184.502,340.006 182.661 C 341.847 180.820,331.030 165.461,315.968 148.531 C 300.906 131.601,287.286 113.857,285.700 109.101 C 284.012 104.035,256.552 99.887,219.409 99.085 C 184.534 98.333,170.354 99.399,187.899 101.455 M296.000 168.000 C 296.000 172.400,290.623 176.000,284.050 176.000 C 277.189 176.000,273.010 181.961,274.237 190.000 C 276.511 204.903,290.697 209.427,293.051 196.000 C 293.823 191.600,296.987 181.700,300.083 174.000 C 303.179 166.300,303.527 160.000,300.856 160.000 C 298.185 160.000,296.000 163.600,296.000 168.000 " stroke="none" fill="#000000" fill-rule="evenodd"></path></g></svg>