<svg id="svg" xmlns="http://www.w3.org/2000/svg" xmlns:xlink="http://www.w3.org/1999/xlink" width="400" height="400" viewBox="0, 0, 400,400" version="1.1"><g id="svgg"><path id="path0" d="M291.286 62.844 C 293.612 66.609,286.378 67.942,275.209 65.807 C 255.309 62.003,200.000 103.648,200.000 122.437 C 200.000 134.680,241.271 120.203,255.118 103.103 C 272.983 81.041,316.189 80.634,337.878 102.323 C 358.744 123.188,359.719 162.211,339.922 184.086 C 320.840 205.172,336.243 227.185,356.151 207.278 C 371.117 192.311,387.082 141.151,374.326 149.035 C 368.554 152.602,367.148 146.697,370.097 131.274 C 376.002 100.384,364.334 80.994,331.613 67.323 C 300.937 54.505,285.041 52.740,291.286 62.844 M253.549 117.047 C 245.686 127.471,233.894 136.000,227.345 136.000 C 217.829 136.000,217.196 139.286,224.192 152.360 L 232.948 168.719 261.288 151.204 C 288.756 134.228,303.386 137.937,303.877 162.000 C 304.097 172.753,318.168 168.313,322.893 156.000 C 328.769 140.689,320.575 118.700,311.162 124.518 C 307.223 126.952,304.000 125.710,304.000 121.756 C 304.000 101.651,267.717 98.264,253.549 117.047 M163.893 120.174 C 154.393 135.545,240.592 264.000,260.407 264.000 C 279.234 264.000,274.375 251.499,227.725 179.928 C 184.327 113.346,174.055 103.730,163.893 120.174 M123.606 144.637 C 118.215 153.361,182.255 252.701,208.695 276.629 C 243.212 307.866,234.457 274.397,190.763 208.071 C 143.909 136.951,134.089 127.675,123.606 144.637 M67.045 175.277 C 43.615 189.564,19.783 233.116,29.874 243.207 C 32.386 245.719,34.168 257.725,33.833 269.887 C 32.178 330.133,109.879 356.662,169.443 316.187 C 191.223 301.387,197.533 292.294,194.383 280.248 C 190.290 264.599,189.464 264.712,166.466 284.063 C 136.882 308.956,113.313 315.145,86.669 305.015 C 37.206 286.209,48.643 203.934,102.650 190.054 C 124.744 184.376,127.654 181.222,119.670 171.603 C 106.972 156.302,97.024 156.996,67.045 175.277 M264.000 176.000 C 255.198 181.689,260.527 183.638,284.000 183.315 C 309.141 182.970,312.571 181.402,300.000 176.000 C 278.950 166.955,277.997 166.955,264.000 176.000 M97.395 210.516 C 52.679 258.113,110.223 314.151,161.114 272.568 C 184.900 253.132,172.298 232.855,145.385 247.259 C 136.402 252.066,125.215 256.000,120.526 256.000 C 105.979 256.000,111.160 233.013,127.702 224.159 C 136.932 219.220,141.525 210.860,138.846 203.878 C 132.304 186.829,117.406 189.214,97.395 210.516 M260.341 199.448 C 257.422 204.172,267.784 215.493,283.532 224.784 C 311.442 241.251,312.000 242.584,312.000 292.790 C 312.000 345.594,328.319 365.698,338.958 326.000 C 355.220 265.316,334.582 200.000,299.146 200.000 C 293.735 200.000,283.978 197.955,277.464 195.455 C 270.949 192.955,263.244 194.752,260.341 199.448 " stroke="none" fill="#000000" fill-rule="evenodd"></path></g></svg>